<svg xmlns="http://www.w3.org/2000/svg" width="22" height="16" viewBox="0 0 22 16"><g><g><path fill="#aa90a4" d="M22.12 1.896c-.815.32-1.687.537-2.606.637.938-.5 1.66-1.291 1.997-2.233-.876.462-1.847.8-2.883.98C17.798.491 16.618 0 15.314 0c-2.508 0-4.537 1.808-4.537 4.037 0 .317.037.625.117.921-3.773-.166-7.12-1.775-9.356-4.22a3.701 3.701 0 0 0-.614 2.029c0 1.4.806 2.637 2.025 3.362a4.862 4.862 0 0 1-2.063-.504v.05c0 1.958 1.566 3.587 3.642 3.958-.38.092-.782.142-1.195.142A4.8 4.8 0 0 1 2.48 9.7c.576 1.604 2.255 2.77 4.242 2.804-1.551 1.084-3.51 1.73-5.639 1.73-.366 0-.727-.021-1.083-.059C2.002 15.333 4.388 16 6.947 16c8.358 0 12.924-6.154 12.924-11.492 0-.175-.005-.35-.015-.52a8.74 8.74 0 0 0 2.265-2.092z"/></g></g></svg>