<svg xmlns="http://www.w3.org/2000/svg" width="16" height="16" viewBox="0 0 16 16"><g><g><g><path fill="#aa90a4" d="M11.333 0H4.667A4.68 4.68 0 0 0 0 4.667v6.666A4.68 4.68 0 0 0 4.667 16h6.666A4.68 4.68 0 0 0 16 11.333V4.667A4.68 4.68 0 0 0 11.333 0zm0 1.333c.884 0 1.721.35 2.354.98.634.629.98 1.47.98 2.354v6.666c0 .884-.35 1.721-.98 2.355-.629.633-1.47.979-2.354.979H4.667c-.884 0-1.721-.35-2.355-.98a3.304 3.304 0 0 1-.979-2.354V4.667c0-.884.35-1.721.98-2.354.629-.634 1.47-.98 2.354-.98h6.666"/></g><g><path fill="#aa90a4" d="M12.117 5.233c-.748 0-1.35-.602-1.35-1.35a1.35 1.35 0 1 1 1.35 1.35z"/></g><g><path fill="#aa90a4" d="M8 4.2a3.801 3.801 0 0 0 0 7.6 3.801 3.801 0 0 0 0-7.6zm0 1.267A2.536 2.536 0 0 1 10.533 8 2.536 2.536 0 0 1 8 10.533 2.536 2.536 0 0 1 5.467 8 2.536 2.536 0 0 1 8 5.467"/></g></g></g></svg>